<svg xmlns="http://www.w3.org/2000/svg" width="1024" height="1536" viewBox="0 0 1024 1536">
  <defs>
    <linearGradient id="paper" x1="0" y1="0" x2="1" y2="1">
      <stop offset="0%" stop-color="#f5edd8"/>
      <stop offset="100%" stop-color="#d4d8bf"/>
    </linearGradient>
    <linearGradient id="door" x1="0" y1="0" x2="0" y2="1">
      <stop offset="0%" stop-color="#49634d"/>
      <stop offset="100%" stop-color="#27382b"/>
    </linearGradient>
  </defs>
  <rect width="1024" height="1536" fill="url(#paper)"/>
  <rect x="96" y="96" width="832" height="1344" rx="42" fill="none" stroke="#55724f" stroke-width="16"/>
  <rect x="138" y="138" width="748" height="1260" rx="28" fill="rgba(255,255,255,0.12)" stroke="#8aa27d" stroke-width="4"/>
  <g fill="#6b8b62">
    <circle cx="166" cy="182" r="42"/>
    <circle cx="864" cy="182" r="42"/>
    <circle cx="166" cy="1352" r="42"/>
    <circle cx="864" cy="1352" r="42"/>
    <circle cx="230" cy="144" r="28"/>
    <circle cx="794" cy="144" r="28"/>
  </g>
  <path d="M214 240 C322 146 426 124 512 124 C636 124 742 176 810 260" stroke="#76906b" stroke-width="12" fill="none"/>
  <path d="M214 1296 C298 1378 420 1410 512 1412 C628 1416 744 1384 810 1302" stroke="#76906b" stroke-width="12" fill="none"/>
  <path d="M196 334 C162 494 150 666 168 840 C188 1022 244 1132 336 1232" stroke="#76906b" stroke-width="12" fill="none"/>
  <path d="M828 334 C862 494 874 666 856 840 C836 1022 780 1132 688 1232" stroke="#76906b" stroke-width="12" fill="none"/>
  <rect x="390" y="398" width="244" height="546" rx="126" fill="url(#door)"/>
  <circle cx="512" cy="490" r="108" fill="#9cb186" opacity="0.64"/>
  <circle cx="512" cy="672" r="12" fill="#ccb26d"/>
  <path d="M512 956 C468 1024 402 1078 336 1124 C434 1116 592 1116 694 1124 C622 1074 556 1024 512 956 Z" fill="#e6d0a0" opacity="0.84"/>
  <g fill="#6b8b62" opacity="0.94">
    <ellipse cx="286" cy="328" rx="20" ry="34"/>
    <ellipse cx="738" cy="328" rx="20" ry="34"/>
    <ellipse cx="262" cy="430" rx="18" ry="28"/>
    <ellipse cx="762" cy="430" rx="18" ry="28"/>
    <ellipse cx="250" cy="1136" rx="22" ry="36"/>
    <ellipse cx="774" cy="1136" rx="22" ry="36"/>
  </g>
</svg>
